<svg width="31" height="31" viewBox="0 0 31 31" fill="none" xmlns="http://www.w3.org/2000/svg">
<g clip-path="url(#clip0_99_4678)">
<path fill-rule="evenodd" clip-rule="evenodd" d="M30.3726 15.7231C30.3726 14.634 30.2748 13.5867 30.0933 12.5813H15.627V18.5228H23.8934C23.5374 20.4428 22.4552 22.0696 20.8284 23.1588V27.0127H25.7925C28.6969 24.3387 30.3726 20.4009 30.3726 15.7231Z" fill="#4285F4"/>
<path fill-rule="evenodd" clip-rule="evenodd" d="M15.6269 30.7341C19.7741 30.7341 23.251 29.3587 25.7924 27.0128L20.8283 23.1588C19.4529 24.0804 17.6935 24.625 15.6269 24.625C11.6263 24.625 8.24013 21.923 7.03227 18.2925H1.90063V22.2721C4.42805 27.292 9.62253 30.7341 15.6269 30.7341Z" fill="#34A853"/>
<path fill-rule="evenodd" clip-rule="evenodd" d="M7.03223 18.2925C6.72503 17.3709 6.55048 16.3865 6.55048 15.3741C6.55048 14.3617 6.72503 13.3773 7.03223 12.4557V8.47607H1.90059C0.8603 10.5497 0.266846 12.8956 0.266846 15.3741C0.266846 17.8527 0.8603 20.1985 1.90059 22.2721L7.03223 18.2925Z" fill="#FBBC05"/>
<path fill-rule="evenodd" clip-rule="evenodd" d="M15.6269 6.12325C17.882 6.12325 19.9067 6.89823 21.4986 8.42027L25.9041 4.01474C23.2441 1.5362 19.7671 0.0141602 15.6269 0.0141602C9.62253 0.0141602 4.42805 3.4562 1.90063 8.47613L7.03227 12.4558C8.24013 8.82522 11.6263 6.12325 15.6269 6.12325Z" fill="#EA4335"/>
</g>
<defs>
<clipPath id="clip0_99_4678">
<rect width="30.72" height="30.72" fill="white" transform="translate(0.266846 0.0141602)"/>
</clipPath>
</defs>
</svg>
